<svg version="1.1" xmlns="http://www.w3.org/2000/svg" xmlns:xlink="http://www.w3.org/1999/xlink" width="612.64861" height="463.68044" viewBox="0,0,612.64861,463.68044"><g transform="translate(73.7636,10.58582)"><g data-paper-data="{&quot;isPaintingLayer&quot;:true}" fill-rule="nonzero" stroke="none" stroke-width="1" stroke-linecap="butt" stroke-linejoin="miter" stroke-miterlimit="10" stroke-dasharray="" stroke-dashoffset="0" style="mix-blend-mode: normal"><g><path d="M-16.0803,173.01477v-183.60059h537.23478v183.60059z" fill="#008cb4"/><g opacity="0.4"><path d="M426.4735,-2.06552c0.59102,-0.35501 9.51538,-0.82836 10.81562,-0.47335c0.29551,0.23667 0.47281,0.65086 0.41371,1.06504c0,1.18337 0,7.5736 0,8.87531c0.0591,0.53252 -0.1182,1.06504 -0.41371,1.53839c-0.47281,0.05917 -9.81089,0.23667 -10.2246,0.17751c-0.35461,-0.11834 -0.59102,-0.35501 -0.65012,-0.71002c-0.23641,-0.65086 -0.1182,-10.05869 0.0591,-10.47287z" fill="#00a0b4"/><path d="M407.20634,6.75062c0,6.56773 0,20.8274 0,21.77409c0.0591,0.53252 -0.17731,1.06504 -0.53192,1.42005c-0.59102,0.05917 -12.58867,0.23668 -13.12059,0.17751c-0.35461,-0.05917 -0.70922,-0.29584 -0.82743,-0.65086c-0.23641,-0.47335 -0.1773,-15.50221 -0.0591,-22.72079z" fill="#78c8c8"/><path d="M348.57741,31.779c-0.23641,0.47335 -0.59102,0.82836 -1.00473,1.06504c-1.95036,1.36088 -4.60994,1.18337 -6.38299,-0.35501c-0.76832,-0.59169 -1.18203,-1.53839 -1.18203,-2.48509c-0.0591,-1.24254 0.23641,-2.48509 0.94563,-3.55012c0.17731,-0.29584 0.47281,-0.59169 0.76832,-0.76919c0.1773,-0.11834 0.35461,-0.17751 0.47281,-0.29584c0.88653,-0.59169 1.89126,-0.88753 2.89598,-0.82836c0.1182,0 0.23641,0 0.35461,0c1.41844,-0.05917 2.77778,0.76919 3.3097,2.07091c0.82742,1.65672 0.76832,3.60929 -0.17731,5.14768z" fill="#00a0b4"/><path d="M458.68395,16.86847c-0.59102,2.78093 0,5.8577 -3.90071,6.27189c-3.90071,0.41418 -4.37353,-3.25428 -4.43263,-6.27189c-0.0591,-2.60342 0.17731,-7.27775 3.66431,-7.69194c4.25533,-0.59169 4.37353,4.97017 4.66904,7.69194z" fill="#aadcdc"/><path d="M329.96037,6.0406c-0.59102,2.78093 0,5.8577 -3.90071,6.27189c-3.90071,0.41418 -4.37353,-3.19511 -4.43263,-6.27189c-0.0591,-2.60342 0.1773,-7.27775 3.72341,-7.69194c4.13712,-0.59169 4.31443,4.97017 4.60994,7.69194z" fill="#78c8c8"/><path d="M376.94625,27.34134c0.17731,1.24254 -0.1773,2.48509 -0.94563,3.49096c-0.53192,0.82836 -1.47754,1.36088 -2.48227,1.36088c-0.29551,0 -0.59102,-0.05917 -0.88653,0c-3.07329,0.11834 -4.90544,-3.31345 -4.13712,-5.8577c0.47281,-1.8934 1.77305,-3.43179 3.6052,-4.14181c1.12293,-0.47335 2.42317,-0.23667 3.19149,0.71002c1.12293,1.30171 2.06856,2.66259 1.65485,4.43766z" fill="#00a0b4"/><path d="M408.38837,37.40003c0.1773,-3.96431 2.54137,-5.44352 4.72814,-5.56186c2.48227,-0.11834 5.08275,2.48509 4.84634,5.8577c-0.1773,2.95844 -2.36407,5.02934 -4.49173,5.26602c-2.54137,0.29584 -5.20095,-1.59756 -5.08275,-5.56186z" fill="#78c8c8"/><path d="M287.22981,24.32374c0.1773,-3.96431 2.54137,-5.44352 4.72814,-5.56186c2.48227,-0.11834 5.08275,2.48509 4.84634,5.8577c-0.17731,2.95844 -2.36407,5.02934 -4.49173,5.26602c-2.54137,0.23667 -5.20095,-1.59756 -5.08275,-5.56186z" fill="#006482"/><path d="M303.60099,9.94573c0.1182,-2.89927 1.89126,-4.02347 3.487,-4.08264c1.83215,-0.11834 3.72341,1.83423 3.60521,4.31932c-0.1182,2.18924 -1.71395,3.72763 -3.3097,3.90514c-1.89126,0.17751 -3.90071,-1.18337 -3.78251,-4.14181z" fill="#006482"/><path d="M282.56078,29.70809c-0.1182,2.89927 -1.89126,4.02347 -3.487,4.08264c-1.83215,0.11834 -3.72341,-1.83423 -3.5461,-4.31932c0.1182,-2.18924 1.71395,-3.72763 3.3097,-3.90514c1.89126,-0.17751 3.84161,1.18337 3.72341,4.14181z" fill="#78c8c8"/><path d="M311.16602,22.96285c0.23641,-5.32519 3.3688,-7.27775 6.32389,-7.45526c3.3097,-0.17751 6.7967,3.31345 6.50119,7.86944c-0.23641,3.96431 -3.13239,6.8044 -6.02838,7.10025c-3.487,0.29584 -7.03311,-2.18924 -6.7967,-7.51443z" fill="#006482"/><path d="M418.02196,48.28707c0.23641,-5.32519 3.4279,-7.27775 6.32389,-7.45526c3.3688,-0.17751 6.7967,3.31345 6.50119,7.86944c-0.23641,3.96431 -3.13239,6.8044 -6.02838,7.10025c-3.4279,0.35501 -7.03311,-2.18924 -6.7967,-7.51443z" fill="#006482"/><path d="M351.70981,20.53694c0.17731,-3.96431 2.54137,-5.44352 4.72814,-5.56186c2.48227,-0.11834 5.08275,2.48509 4.84634,5.8577c-0.17731,2.95844 -2.36407,5.08851 -4.55083,5.32519c-2.54138,0.17751 -5.20095,-1.65672 -5.02365,-5.62103z" fill="#aadcdc"/><path d="M413.41202,20.95112l0.59102,-19.82153l9.21987,19.58485z" fill="#aadcdc"/><path d="M455.66976,64.85432c-0.59102,2.72176 -0.1182,6.21272 -4.31443,6.03521c-3.84161,-0.11834 -3.84161,-4.20098 -3.72341,-7.15942c0.1182,-2.36675 0.41371,-5.62103 3.3097,-6.21272c4.31443,-0.76919 4.43263,4.61516 4.72814,7.33692z" fill="#006482"/><path d="M262.76169,56.5707c-0.82742,3.72763 0,7.98778 -5.31916,8.5203c-5.31916,0.53252 -5.91017,-4.37849 -6.02838,-8.5203c-0.0591,-3.60929 0.23641,-9.88118 5.02365,-10.53203c5.67377,-0.71002 5.91017,6.86357 6.32389,10.53204z" fill="#006482"/><path d="M332.38354,74.02547c-0.76832,3.66846 0,7.81027 -5.20095,8.34279c-5.20095,0.53252 -5.79197,-4.31932 -5.91017,-8.34279c-0.0591,-3.55012 0.23641,-9.70367 4.90544,-10.29536c5.55556,-0.71002 5.79197,6.68607 6.20568,10.29536z" fill="#aadcdc"/><path d="M240.77585,53.19808c-0.59102,0.35501 -9.51538,0.82836 -10.81562,0.47335c-0.29551,-0.23667 -0.47281,-0.65086 -0.41371,-1.06504c0,-1.18337 0,-7.5736 0,-8.87531c-0.0591,-0.53252 0.1182,-1.06504 0.41371,-1.53839c0.53191,-0.05917 9.86999,-0.23668 10.2837,-0.17751c0.35461,0.11834 0.59102,0.35501 0.65012,0.71002c0.17731,0.65086 0.0591,10.05869 -0.1182,10.47287z" fill="#78c8c8"/><path d="M144.0263,12.01664c-0.59102,0.35501 -9.51538,0.82836 -10.81562,0.47335c-0.29551,-0.23667 -0.47281,-0.65086 -0.41371,-1.06504c0,-1.12421 0,-7.5736 0,-8.87531c-0.0591,-0.53252 0.1182,-1.06504 0.41371,-1.53839c0.53192,-0.05917 9.86999,-0.23667 10.2837,-0.17751c0.35461,0.05917 0.59102,0.29584 0.65012,0.65086c0.17731,0.65086 0.0591,10.11785 -0.1182,10.53204z" fill="#78c8c8"/><path d="M383.74295,56.03818c0.59102,-0.35501 9.51538,-0.82836 10.81562,-0.47335c0.35461,0.23667 0.53192,0.65086 0.47281,1.06504c0,1.12421 0,25.67923 0,26.98094c0.0591,0.53252 -0.1182,1.06504 -0.41371,1.53839c-0.47281,0.05917 -9.81089,0.23667 -10.2246,0.17751c-0.35461,-0.05917 -0.59102,-0.29584 -0.65012,-0.65086c-0.17731,-0.65086 -0.1182,-28.22349 0,-28.63767z" fill="#00a0b4"/><path d="M213.05713,0.18289c0,8.75697 0,27.86847 0,29.17019c0,0.65086 -0.0591,1.24254 -0.1773,1.8934c-1.41844,0.17751 -2.83688,0.23667 -4.25532,0.23667c-0.1773,-0.05917 -0.23641,-0.41418 -0.29551,-0.82836c-0.0591,-0.65086 -0.0591,-20.82739 0,-30.4719z" fill="#00a0b4"/><path d="M450.40971,27.93303v21.77409c0,0.47335 -0.0591,0.9467 -0.1773,1.42005c-0.23641,0.05917 -4.07802,0.23667 -4.25532,0.17751c-0.1773,-0.05917 -0.23641,-0.35501 -0.29551,-0.65086c-0.0591,-0.47335 -0.0591,-15.50221 0,-22.72079z" fill="#78c8c8"/><path d="M482.14734,53.7306c-0.41371,2.01174 -0.0591,4.61516 -3.19149,4.49682c-2.89598,-0.11834 -2.83688,-3.13594 -2.77778,-5.32519c0.0591,-1.77506 0.29551,-4.20098 2.48227,-4.61516c3.19149,-0.65086 3.2506,3.37262 3.487,5.44352z" fill="#006482"/><path d="M460.98892,45.09196c0.29551,1.00587 0.29551,2.13007 0.0591,3.13594c-0.17731,1.47922 -1.47754,2.54426 -2.95509,2.42592c-0.82743,-0.11834 -1.59575,-0.59169 -2.00946,-1.30171c-0.82742,-1.12421 -0.88653,-2.60342 -0.1773,-3.84597c0.1182,-0.17751 0.1773,-0.35501 0.29551,-0.53252c0.53192,-0.88753 1.41844,-1.47922 2.48227,-1.59756c0.70922,-0.05917 1.47754,0.23667 1.89126,0.88753c0.0591,0.23667 0.23641,0.53252 0.41371,0.82836z" fill="#78c8c8"/><path d="M354.01477,39.11592c0.29551,1.00587 0.29551,2.13007 0.0591,3.13594c-0.23641,1.30171 -1.30024,2.30758 -2.65958,2.42592c-0.94563,-0.05917 -1.83215,-0.53252 -2.30497,-1.30171c-0.82742,-1.12421 -0.88653,-2.60342 -0.1773,-3.84597c0.1182,-0.17751 0.1773,-0.35501 0.29551,-0.53252c0.53192,-0.88753 1.41844,-1.47922 2.48227,-1.59756c0.70922,-0.05917 1.47754,0.23667 1.89126,0.88753c0.0591,0.23667 0.23641,0.53252 0.41371,0.82836z" fill="#78c8c8"/><path d="M457.91563,88.99516c0.29551,1.00587 0.29551,2.13007 0.0591,3.13594c-0.1773,1.47922 -1.47754,2.54426 -2.95509,2.36675c-0.82742,-0.11834 -1.59575,-0.59169 -2.00946,-1.30171c-0.82742,-1.12421 -0.88653,-2.60342 -0.1773,-3.84597c0.1182,-0.17751 0.1773,-0.35501 0.29551,-0.53252c0.53192,-0.88753 1.41844,-1.47922 2.48227,-1.59756c0.70922,-0.05917 1.47754,0.23668 1.89126,0.88753c0.0591,0.35501 0.23641,0.65086 0.41371,0.88753z" fill="#78c8c8"/><path d="M442.72648,79.469c0.29551,1.00587 0.29551,2.13007 0.0591,3.13594c-0.23641,1.36088 -1.30024,2.30758 -2.65958,2.42592c-0.94563,-0.05917 -1.83215,-0.53252 -2.30497,-1.30171c-0.82742,-1.12421 -0.88653,-2.60342 -0.1773,-3.84597c0.1182,-0.17751 0.1773,-0.35501 0.29551,-0.53252c0.53192,-0.88753 1.41844,-1.47922 2.48227,-1.59756c0.70922,-0.05917 1.47754,0.23667 1.89126,0.88753c0.1182,0.29584 0.23641,0.59169 0.41371,0.82836z" fill="#aadcdc"/><path d="M481.14261,92.07194c0.29551,1.00587 0.29551,2.13007 0.0591,3.13594c-0.23641,1.36088 -1.30024,2.30758 -2.65958,2.42592c-0.94563,-0.05917 -1.83215,-0.53252 -2.30497,-1.30171c-0.82742,-1.12421 -0.88653,-2.60342 -0.1773,-3.84597c0.1182,-0.17751 0.1773,-0.35501 0.29551,-0.53252c0.53192,-0.88753 1.41844,-1.47922 2.48227,-1.59756c0.70922,-0.05917 1.47754,0.23668 1.89126,0.88753c0.1182,0.29584 0.23641,0.59169 0.41371,0.82836z" fill="#00a0b4"/><path d="M467.90382,98.81717c0.29551,1.00587 0.29551,2.13008 0.0591,3.13594c-0.1773,1.47922 -1.47754,2.54426 -2.95509,2.36675c-0.82742,-0.11834 -1.59575,-0.59169 -2.00946,-1.30171c-0.82742,-1.12421 -0.88653,-2.60342 -0.1773,-3.84597c0.1182,-0.17751 0.1773,-0.35501 0.29551,-0.53252c0.53192,-0.88753 1.41844,-1.47922 2.48227,-1.59756c0.70922,-0.05917 1.47754,0.23667 1.89126,0.88753c0.0591,0.35501 0.23641,0.59169 0.41371,0.88753z" fill="#00a0b4"/><path d="M471.27262,55.86067c0.29551,1.00587 0.29551,2.13007 0.0591,3.13594c-0.17731,1.47922 -1.47754,2.54426 -2.95509,2.42592c-0.82742,-0.11834 -1.59575,-0.59169 -2.00946,-1.30171c-0.82742,-1.12421 -0.88653,-2.60342 -0.1773,-3.84597c0.1182,-0.17751 0.1773,-0.35501 0.29551,-0.53252c0.53192,-0.88753 1.41844,-1.47922 2.48227,-1.59756c0.70922,-0.05917 1.47754,0.29584 1.89126,0.88753c0.0591,0.29584 0.23641,0.53252 0.41371,0.82836z" fill="#78c8c8"/><path d="M413.29382,85.26753c0.29551,1.00587 0.29551,2.13007 0.0591,3.13594c-0.23641,1.30171 -1.30024,2.30758 -2.65958,2.42592c-0.94563,-0.05917 -1.83215,-0.53252 -2.30497,-1.30171c-0.82743,-1.12421 -0.88653,-2.60342 -0.17731,-3.84597c0.1182,-0.17751 0.17731,-0.35501 0.29551,-0.53252c0.53192,-0.88753 1.41844,-1.47922 2.48227,-1.59756c0.70922,-0.05917 1.47754,0.23667 1.89126,0.88753c0.0591,0.29584 0.23641,0.53252 0.41371,0.82836z" fill="#78c8c8"/><path d="M314.1802,51.8372c0.29551,1.00587 0.29551,2.13007 0.0591,3.13594c-0.17731,1.47922 -1.47754,2.54426 -2.95509,2.42592c-0.82743,-0.11834 -1.59575,-0.59169 -2.00946,-1.30171c-0.82743,-1.12421 -0.88653,-2.60342 -0.17731,-3.84597c0.1182,-0.17751 0.17731,-0.35501 0.29551,-0.53252c0.53192,-0.88753 1.41844,-1.47922 2.48227,-1.59756c0.70922,-0.05917 1.47754,0.29584 1.89126,0.88753c0.0591,0.29584 0.23641,0.59169 0.41371,0.82836z" fill="#78c8c8"/><path d="M242.13519,5.38974c0.29551,1.00587 0.29551,2.13007 0.0591,3.13594c-0.23641,1.36088 -1.30024,2.30758 -2.65958,2.42592c-0.94563,-0.05917 -1.83215,-0.53252 -2.30497,-1.30171c-0.82742,-1.12421 -0.88653,-2.60342 -0.1773,-3.84597c0.1182,-0.17751 0.1773,-0.35501 0.29551,-0.53252c0.53191,-0.88753 1.41844,-1.47922 2.42317,-1.59756c0.70922,-0.05917 1.47754,0.23667 1.83215,0.88753c0.23641,0.29584 0.35461,0.53252 0.53191,0.82836z" fill="#006482"/><path d="M409.09759,71.83623c0.17731,1.24254 -0.17731,2.48509 -0.94563,3.49096c-0.59102,0.82836 -1.53665,1.36088 -2.54138,1.36088c-0.29551,0 -0.59102,0 -0.88653,0c-3.13239,0.11834 -5.02365,-3.31345 -4.25533,-5.8577c0.47281,-1.8934 1.83215,-3.49096 3.66431,-4.14181c1.12293,-0.47335 2.42317,-0.23668 3.2506,0.71002c1.18203,1.24254 2.12766,2.60342 1.71395,4.43766z" fill="#78c8c8"/><path d="M474.81872,79.17315c-0.1773,-1.24254 0.17731,-2.48509 0.94563,-3.49096c0.59102,-0.82836 1.53665,-1.36088 2.54138,-1.36088c0.29551,0 0.59102,0.05917 0.88653,0c3.13239,-0.11834 5.02365,3.31345 4.25533,5.8577c-0.47281,1.8934 -1.83215,3.49096 -3.66431,4.14181c-1.12293,0.47335 -2.42317,0.23667 -3.2506,-0.71002c-1.18203,-1.24254 -2.12766,-2.60342 -1.71395,-4.43766z" fill="#aadcdc"/><path d="M393.79024,45.03279c0.17731,-3.96431 2.54137,-5.44352 4.72814,-5.56186c2.48227,-0.11834 5.08275,2.48509 4.84634,5.8577c-0.17731,2.95844 -2.36407,5.08851 -4.49173,5.26602c-2.60048,0.23668 -5.26006,-1.65672 -5.08275,-5.56186z" fill="#78c8c8"/><path d="M244.26285,42.01519c0.17731,-3.96431 2.54137,-5.44352 4.72814,-5.56186c2.48227,-0.11834 5.08275,2.48509 4.84634,5.8577c-0.17731,2.95844 -2.36407,5.02934 -4.49173,5.26602c-2.60048,0.23667 -5.26005,-1.59756 -5.08275,-5.56186z" fill="#00a0b4"/><path d="M282.79718,60.83085c0.1182,-2.89927 1.89126,-4.02347 3.487,-4.08264c1.83215,-0.11834 3.72341,1.83423 3.60521,4.31932c-0.1182,2.18924 -1.71395,3.72763 -3.3097,3.90514c-1.89126,0.11834 -3.90071,-1.24254 -3.78251,-4.14181z" fill="#00a0b4"/><path d="M335.45683,53.7306c0.23641,-5.32519 3.4279,-7.27775 6.32389,-7.45526c3.3688,-0.17751 6.7967,3.31345 6.50119,7.86944c-0.23641,3.96431 -3.13239,6.8044 -6.08748,7.10025c-3.3688,0.29584 -6.9149,-2.18924 -6.7376,-7.51443z" fill="#aadcdc"/><path d="M470.20879,80.77071l-19.79908,-0.53252l19.56268,-9.23032z" fill="#006482"/><path d="M262.52529,32.54819l-12.58867,-0.53252l12.35226,-9.23032z" fill="#006482"/><path d="M440.0669,26.57215c0,2.8401 0,4.97017 0,5.32519c0.0591,0.53252 -0.1773,1.06504 -0.53191,1.42005c-0.59102,0.05917 -12.58867,0.23667 -13.12059,0.17751c-0.35461,-0.05917 -0.70922,-0.29584 -0.82742,-0.65086c-0.0591,-0.17751 -0.1182,-2.78093 -0.1182,-6.27189z" fill="#aadcdc"/><path d="M414.47585,64.08513c0.1182,-2.30758 1.47754,-3.13594 2.71868,-3.19511c1.41844,-0.05917 2.89598,1.42005 2.77778,3.37262c-0.0591,1.47922 -1.12293,2.78093 -2.60048,3.07677c-1.47754,0.11834 -3.01419,-1.00587 -2.89598,-3.25428z" fill="#00a0b4"/><path d="M433.92032,56.62987c0.1182,-2.30758 1.47754,-3.13594 2.71868,-3.19511c1.41844,-0.05917 2.89599,1.42005 2.77778,3.37262c-0.0591,1.47922 -1.12293,2.78093 -2.60048,3.07677c-1.41844,0.11834 -2.95509,-0.9467 -2.89598,-3.25428z" fill="#00a0b4"/><path d="M374.40487,59.64747c0.1182,-2.30758 1.47754,-3.13594 2.71868,-3.19511c1.41844,-0.05917 2.95509,1.42005 2.77778,3.37262c-0.0591,1.47922 -1.12293,2.78093 -2.60048,3.07677c-1.41844,0.11834 -2.95509,-0.9467 -2.89598,-3.25428z" fill="#78c8c8"/><path d="M327.95091,33.6724c0.1182,-2.30758 1.47754,-3.13594 2.71868,-3.19511c1.41844,-0.05917 2.89598,1.42005 2.77778,3.37262c-0.0591,1.47922 -1.12293,2.78093 -2.60048,3.07677c-1.41844,0.11834 -2.95509,-1.00587 -2.89598,-3.25428z" fill="#00a0b4"/><path d="M248.75458,11.42495c0.1182,-2.30758 1.47754,-3.13594 2.71868,-3.19511c1.41844,-0.05917 2.89598,1.42005 2.77778,3.37262c-0.0591,1.47922 -1.12293,2.78093 -2.60048,3.01761c-1.47754,0.17751 -3.01419,-0.88753 -2.89598,-3.19511z" fill="#00a0b4"/><path d="M198.57721,34.67826c0.1182,-2.30758 1.47754,-3.13594 2.71868,-3.19511c1.41844,-0.11834 2.95509,1.42005 2.77778,3.37262c-0.0591,1.47922 -1.12293,2.78093 -2.60048,3.07677c-1.47754,0.11834 -3.01419,-0.9467 -2.89598,-3.25428z" fill="#00a0b4"/><path d="M187.64339,7.75649c0.1182,-2.30758 1.47754,-3.13594 2.71868,-3.19511c1.41844,-0.11834 2.89598,1.42005 2.77778,3.37262c-0.0591,1.47922 -1.12293,2.78093 -2.60048,3.07677c-1.47754,0.11834 -3.01419,-0.9467 -2.89599,-3.25428z" fill="#00a0b4"/><path d="M185.27932,37.34086c0.1182,-2.30758 1.47754,-3.13594 2.71868,-3.19511c1.41844,-0.11834 2.89598,1.42005 2.77778,3.37262c-0.0591,1.47922 -1.12293,2.78093 -2.60048,3.07677c-1.47754,0.11834 -3.01419,-0.9467 -2.89598,-3.25428z" fill="#00a0b4"/><path d="M162.22964,14.85674c0.1182,-2.30758 1.47754,-3.13594 2.71868,-3.19511c1.41844,-0.11834 2.89599,1.42005 2.77778,3.37262c-0.0591,1.47922 -1.12293,2.78093 -2.60048,3.01761c-1.47754,0.17751 -3.01419,-0.88753 -2.89599,-3.19511z" fill="#00a0b4"/><path d="M382.2654,15.03424c0.1182,-2.30758 1.47754,-3.13594 2.71868,-3.19511c1.41844,-0.05917 2.89598,1.42005 2.77778,3.37262c-0.0591,1.53839 -1.12293,2.78093 -2.60048,3.07677c-1.47754,0.11834 -3.01419,-0.9467 -2.89598,-3.25428z" fill="#00a0b4"/><path d="M264.41654,40.95015c0.1182,-2.30758 1.47754,-3.13594 2.71868,-3.19511c1.41844,-0.05917 2.89598,1.42005 2.77778,3.37262c-0.0591,1.47922 -1.12293,2.78093 -2.60048,3.07677c-1.41844,0.11834 -2.95509,-1.00587 -2.89598,-3.25428z" fill="#00a0b4"/><path d="M220.74036,28.46555c0.1182,-2.30758 1.47754,-3.13594 2.71868,-3.19511c1.41844,-0.05917 2.89598,1.42005 2.77778,3.37262c-0.0591,1.47922 -1.12293,2.78093 -2.60048,3.07677c-1.47754,0.11834 -3.01419,-0.9467 -2.89599,-3.25428z" fill="#00a0b4"/><path d="M211.8751,42.07436c0.1182,-2.30758 1.47754,-3.13594 2.71868,-3.19511c1.41844,-0.11834 2.89598,1.42005 2.77778,3.37262c-0.0591,1.47922 -1.12293,2.78093 -2.60048,3.07677c-1.47754,0.11834 -3.01419,-0.9467 -2.89599,-3.25428z" fill="#00a0b4"/><path d="M290.48041,54.20395c0.1773,-3.96431 2.54137,-5.44352 4.72814,-5.56186c2.48227,-0.11834 5.08275,2.48509 4.84634,5.8577c-0.17731,2.95844 -2.36407,5.08851 -4.49173,5.26602c-2.60048,0.29584 -5.26006,-1.59756 -5.08275,-5.56186z" fill="#00a0b4"/><path d="M357.67908,48.81959c0.1773,-3.96431 2.54137,-5.44352 4.72814,-5.56186c2.48227,-0.11834 5.08275,2.48509 4.84634,5.8577c-0.1773,2.95844 -2.36407,5.08851 -4.49173,5.26602c-2.60048,0.23667 -5.26005,-1.59756 -5.08275,-5.56186z" fill="#00a0b4"/><path d="M343.37646,74.43965c0.1773,-3.96431 2.54137,-5.44352 4.72814,-5.56186c2.48227,-0.11834 5.08275,2.48509 4.84634,5.8577c-0.1773,2.95844 -2.36407,5.08851 -4.49173,5.26602c-2.54137,0.29584 -5.20095,-1.59756 -5.08275,-5.56186z" fill="#00a0b4"/><path d="M431.26074,69.82449c0.17731,-3.96431 2.54138,-5.44352 4.72814,-5.56186c2.48227,-0.11834 5.08275,2.48509 4.84634,5.8577c-0.1773,2.95844 -2.36407,5.08851 -4.49173,5.26602c-2.54138,0.29584 -5.20095,-1.59756 -5.08275,-5.56186z" fill="#00a0b4"/><path d="M361.22519,74.61716c0.1773,-5.32519 2.54137,-7.33692 4.78724,-7.51443c2.54137,-0.17751 5.14185,3.37262 4.90544,7.86944c-0.17731,3.96431 -2.36407,6.86357 -4.55083,7.15942c-2.60048,0.35501 -5.31916,-2.18924 -5.14185,-7.51443z" fill="#aadcdc"/><path d="M430.96524,93.19614c0.1182,-2.89927 1.35934,-3.96431 2.60048,-4.08264c1.35934,-0.11834 2.77778,1.83423 2.65958,4.26015c-0.1182,2.13007 -1.30024,3.66846 -2.48227,3.84597c-1.41844,0.17751 -2.89598,-1.18337 -2.77778,-4.02347z" fill="#aadcdc"/><path d="M198.3999,15.98094c0.0591,-2.89927 1.35934,-3.96431 2.60048,-4.02347c1.35934,-0.11834 2.77778,1.77506 2.65958,4.26015c-0.1182,2.13007 -1.30024,3.66846 -2.48227,3.84597c-1.41844,0.17751 -2.83688,-1.18337 -2.77778,-4.08264z" fill="#aadcdc"/><path d="M366.13063,6.39561c0.1773,-3.96431 2.54138,-5.44352 4.72814,-5.56186c2.48227,-0.11834 5.08275,2.48509 4.84634,5.8577c-0.1773,2.95844 -2.36407,5.08851 -4.49173,5.26602c-2.54137,0.23667 -5.20095,-1.65672 -5.08275,-5.56186z" fill="#006482"/><path d="M126.8868,23.61371c0.17731,-3.96431 2.54137,-5.44352 4.72814,-5.56186c2.48227,-0.11834 5.08275,2.48509 4.84634,5.8577c-0.17731,2.95844 -2.36407,5.02934 -4.49173,5.26602c-2.54137,0.29584 -5.26005,-1.59756 -5.08275,-5.56186z" fill="#00a0b4"/><path d="M177.53699,22.13449c0.17731,-3.96431 2.54137,-5.44352 4.72814,-5.56186c2.48227,-0.11834 5.08275,2.48509 4.84634,5.8577c-0.1773,2.95844 -2.36407,5.02934 -4.49173,5.26602c-2.60048,0.23667 -5.26005,-1.65672 -5.08275,-5.56186z" fill="#006482"/><path d="M100.58653,13.43669c0.17731,-3.96431 2.54137,-5.44352 4.72814,-5.56186c2.48227,-0.11834 5.08275,2.48509 4.84634,5.8577c-0.17731,2.95844 -2.36407,5.08851 -4.49173,5.26602c-2.60048,0.23667 -5.26005,-1.59756 -5.08275,-5.56186z" fill="#00a0b4"/><path d="M301.11872,42.84355c0.1773,-3.96431 2.54137,-5.44352 4.72814,-5.56186c2.48227,-0.11834 5.08275,2.48509 4.84634,5.8577c-0.1773,2.95844 -2.36407,5.08851 -4.49173,5.26602c-2.54137,0.23668 -5.20095,-1.59756 -5.08275,-5.56186z" fill="#00a0b4"/><path d="M171.27221,6.0406c0.17731,-3.96431 2.54137,-5.44352 4.72814,-5.56186c2.48227,-0.11834 5.08275,2.48509 4.84634,5.8577c-0.17731,2.95844 -2.36407,5.08851 -4.49173,5.26602c-2.54137,0.29584 -5.20095,-1.59756 -5.08275,-5.56186z" fill="#aadcdc"/><path d="M419.4995,78.93648c0.1773,-3.96431 2.54137,-5.44352 4.72814,-5.56186c2.48227,-0.11834 5.08275,2.48509 4.84634,5.8577c-0.1773,2.95844 -2.36407,5.08851 -4.49173,5.26602c-2.60048,0.23667 -5.26005,-1.59756 -5.08275,-5.56186z" fill="#00a0b4"/><path d="M263.35271,12.19414c0.1773,-3.19511 2.54137,-4.37849 4.72814,-4.49682c2.48227,-0.11834 5.08275,2.01174 4.84634,4.7335c-0.1773,2.36675 -2.36407,4.08264 -4.49173,4.26015c-2.60048,0.17751 -5.26006,-1.30171 -5.08275,-4.49682z" fill="#aadcdc"/><path d="M431.67446,16.51346c0.1773,-3.19511 2.54137,-4.37849 4.72814,-4.49682c2.48227,-0.11834 5.08275,2.01174 4.84634,4.7335c-0.1773,2.36675 -2.36407,4.08264 -4.49173,4.26015c-2.60048,0.17751 -5.26006,-1.30171 -5.08275,-4.49682z" fill="#78c8c8"/><path d="M321.33151,47.51788c0.17731,-3.19511 2.54138,-4.37849 4.72814,-4.49682c2.48227,-0.11834 5.08275,2.01174 4.84634,4.7335c-0.1773,2.36675 -2.36407,4.08264 -4.49173,4.26015c-2.60048,0.17751 -5.26005,-1.30171 -5.08275,-4.49682z" fill="#78c8c8"/><path d="M332.97456,15.03424c0.23641,-3.96431 3.60521,-5.44352 6.6785,-5.56186c3.5461,-0.11834 7.21041,2.48509 6.8558,5.8577c-0.23641,2.95844 -3.3688,5.08851 -6.38299,5.26602c-3.60521,0.29584 -7.38772,-1.59756 -7.15131,-5.56186z" fill="#aadcdc"/><path d="M217.60797,13.67336c0.23641,-3.96431 3.60521,-5.44352 6.6785,-5.56186c3.5461,-0.11834 7.15131,2.48509 6.8558,5.8577c-0.23641,2.95844 -3.3097,5.08851 -6.38299,5.26602c-3.60521,0.23667 -7.38772,-1.59756 -7.15131,-5.56186z" fill="#aadcdc"/><path d="M471.39082,34.91494c0.23641,-3.96431 3.60521,-5.44352 6.6785,-5.56186c3.5461,-0.11834 7.15131,2.48509 6.8558,5.8577c-0.23641,2.95844 -3.3688,5.02934 -6.38299,5.26602c-3.60521,0.23668 -7.38772,-1.59756 -7.15131,-5.56186z" fill="#00a0b4"/><path d="M283.03359,47.99123c-0.59102,2.78093 0,5.8577 -3.90071,6.21272c-3.90071,0.35501 -4.37353,-3.19511 -4.43263,-6.27189c-0.0591,-2.66259 0.1773,-7.27775 3.66431,-7.69194c4.25532,-0.53252 4.37353,5.02934 4.66904,7.7511z" fill="#006482"/><path d="M244.20375,23.67288c-0.59102,2.78093 0,5.8577 -3.90071,6.21272c-3.90071,0.35501 -4.37353,-3.25428 -4.43263,-6.27189c-0.0591,-2.60342 0.17731,-7.27775 3.66431,-7.69194c4.19622,-0.47335 4.37353,5.08851 4.66904,7.7511z" fill="#aadcdc"/><path d="M385.87061,43.08022c-0.59102,2.78093 0,5.8577 -3.90071,6.27189c-3.90071,0.41418 -4.37353,-3.25428 -4.43263,-6.27189c-0.0591,-2.66259 0.1773,-7.27775 3.66431,-7.69194c4.19622,-0.53252 4.37353,5.02934 4.66904,7.69194z" fill="#006482"/><path d="M287.87993,8.70319c-0.59102,2.78093 0,5.8577 -3.90071,6.27189c-3.90072,0.41418 -4.37353,-3.25428 -4.43263,-6.27189c-0.0591,-2.60342 0.17731,-7.27775 3.66431,-7.69194c4.19622,-0.53252 4.37353,5.02934 4.66904,7.69194z" fill="#006482"/><path d="M93.25791,4.97556c-0.59102,2.78093 0,5.8577 -3.90071,6.27189c-3.90071,0.41418 -4.37353,-3.25428 -4.43263,-6.27189c-0.0591,-2.60342 0.17731,-7.27775 3.66431,-7.69194c4.19622,-0.59169 4.37353,4.97017 4.66904,7.69194z" fill="#006482"/><path d="M156.67408,26.45381c-0.59102,2.78093 0,5.8577 -3.90071,6.21272c-3.90071,0.35501 -4.37353,-3.25428 -4.37353,-6.27189c-0.0591,-2.66259 0.17731,-7.27775 3.66431,-7.69194c4.13712,-0.53252 4.31443,5.02934 4.60994,7.7511z" fill="#aadcdc"/><path d="M471.21352,4.02886v21.77409c0,0.47335 -0.0591,0.9467 -0.1773,1.42005c-0.23641,0.05917 -4.07802,0.23667 -4.25532,0.17751c-0.1773,-0.05917 -0.23641,-0.35501 -0.29551,-0.65086c-0.0591,-0.47335 -0.0591,-15.50221 0,-22.72079z" fill="#aadcdc"/></g><path d="M149.52277,47.04453l-15.60286,21.53742l-144.26734,-33.13449v-41.71396l142.9671,30.41273z" fill="#78c8c8"/><path d="M133.91991,68.58195l-1.30024,-44.43572l254.84669,58.22204l21.04022,22.18828l-19.73998,25.85674z" fill="#aadcdc"/><path d="M485.10243,153.48909l-97.87248,-21.77409l0.23641,-49.34673l97.63607,21.47825z" fill="#78c8c8"/><path d="M411.22526,159.5243l-97.87247,-23.25331l0.23641,-42.66066l97.63607,21.47825z" fill="#78c8c8"/><path d="M538.88501,174.31648l-97.87248,-23.25331l0.23641,-42.66066l97.63607,21.47825z" fill="#00a0b4"/><path d="M224.46377,119.28956l-97.87247,-23.25331l0.23641,-42.66066l97.63607,21.47825z" fill="#00a0b4"/><path d="M362.17081,156.56586l-97.87247,-23.25331l0.23641,-42.66066l97.63607,23.25331z" fill="#00a0b4"/><path d="M165.95305,95.62206l-97.87247,-23.25331l0.23641,-42.66066l97.63607,21.47825z" fill="#78c8c8"/><path d="M74.34536,73.13794l-97.87248,-23.25331l0.23641,-42.66066l97.63607,21.47825z" fill="#00a0b4"/><path d="M24.10888,74.913l-97.87248,-23.25331l0.23641,-42.66066l97.63607,21.47825z" fill="#008cb4"/></g><g><path d="M490.90013,151.48231l2.42396,229.94908l-493.18754,-2.71989l-5.26177,-343.7115z" fill="#a0aa1e"/><path d="M-5.12522,35l502.52866,118.25615l0.59121,7.68665l-501.34624,-117.66487z" fill="#828c00"/><path d="M-20.20108,91.05342l131.60339,35.06295l-138.34318,125.05588z" fill="#828c00"/><path d="M291.66229,298.71121c-3.78374,4.31635 -86.43493,62.9714 -86.43493,62.9714c0,0 -7.98134,-0.94605 -11.64684,-1.53733c-3.84287,-0.65041 -7.62661,-1.35994 -11.41036,-2.18774c-8.39518,-1.83297 -16.96773,-2.83815 -25.36292,-4.73025c-16.14004,-3.60681 -32.10271,-8.10055 -48.12451,-12.12126c-13.30223,-3.3703 -26.54534,-6.91798 -39.3746,-11.88474c-92.76088,-35.83161 -83.77448,-67.87903 -86.25757,-81.36023c-2.48308,-13.36295 7.39013,-32.04742 14.18904,-43.75478c28.37809,-49.19456 92.40615,-72.60928 105.88575,-79.05424l1.00506,0.53215l1.41891,-0.65041l0.35473,0.05913c4.13847,-1.77384 8.21782,-3.66594 12.35629,-5.32153c1.89187,-0.76866 100.03276,26.60763 103.81651,28.49973z" fill="#be965a"/><path d="M394.65111,220.60303c-14.12992,10.58393 -28.25985,21.22698 -42.7445,31.33788c-7.21276,5.02589 -14.54377,10.22916 -21.40181,15.72807c-5.85298,4.67112 -32.45744,27.13979 -38.84251,31.04224l-198.70574,-51.85532l-12.00157,-15.31417l141.12187,-83.37059c6.38507,0.35477 166.36655,42.80873 172.45601,44.70083l0.94594,18.86186c0,3.07466 0,5.91281 -0.8277,8.86921z" fill="#be965a"/><path d="M363.19873,211.20166l-93.41121,66.22344l-156.61158,-38.61063c0,0 90.92813,-59.00982 105.17629,-67.8199z" fill="#d2e614"/><path d="M379.87085,233.19731c-6.32595,-2.24687 -13.89344,-5.55804 -19.33257,-10.99782c-10.58266,-10.70218 -5.02529,-20.10354 -3.48814,-24.65641c1.30066,-3.90245 5.32089,-22.70518 41.9168,-21.10872c37.48273,1.65559 55.57376,12.77166 55.57376,30.86485c0,18.09319 -16.67213,23.71036 -20.33763,25.30682c-8.45431,3.66594 -46.35088,3.3703 -54.33222,0.59128z" fill="#be965a"/><path d="M298.28385,265.12647c-2.18748,2.24687 -15.96267,11.23433 -26.30885,18.92098c-15.78531,-2.9564 -41.85768,-8.15967 -45.10934,-9.22398c1.1233,-0.94605 2.36484,-1.83297 3.60638,-2.60164c3.72462,-2.48338 7.44925,-4.96676 11.35124,-7.03624c7.44925,-3.90245 15.54883,-4.61199 23.58929,-4.73025c8.39518,-0.17738 16.84949,0.59128 25.12643,2.36512c2.66044,0.59128 5.26177,1.35995 7.74485,2.30599z" fill="#be965a"/><path d="M251.93297,169.87114c-4.19759,5.97194 -6.56243,12.18038 -27.25479,16.08284c-20.69236,3.90245 -34.99964,-0.59128 -42.92186,-3.07466c-1.83275,-0.59128 -3.78374,-1.24169 -5.73474,-2.01035c4.72968,-3.3703 35.82734,-22.94169 35.82734,-22.94169c0,0 29.67875,8.86921 40.08405,11.94387z" fill="#be965a"/><path d="M137.06083,232.84254c2.30572,4.73025 2.12836,7.98229 -0.11824,12.18038c-2.18748,4.07984 -7.74485,10.1109 -7.74485,10.1109l-50.60759,-11.64823c0,0 38.36954,-24.24251 41.68032,-25.77984c6.44419,3.01553 13.30223,7.74578 16.79037,15.13679z" fill="#be965a"/><path d="M390.09879,213.15289l0.17736,-15.25504l20.57412,-0.17739l12.00157,7.45014l-12.23805,7.74578z" fill="#ffffff"/><path d="M385.13262,368.48234c1.47803,-1.24169 87.79471,-85.26268 105.17629,-102.76459v102.76459z" fill="#828c00"/><path d="M397.84364,202.45071l-412.96032,-107.49484l4.96617,-2.18774l407.69855,106.90356z" fill="#ffffff"/><path d="M406.06147,203.33763l-349.0505,249.75699l1.4189,-5.20327l345.79884,-247.51012z" fill="#ffffff"/><path d="M412.26917,224.26897l-20.69236,-0.05913v-3.48856l20.69236,0.11826z" fill="#a0783c"/><path d="M195.05855,223.26379c0.53209,-1.18256 0.88681,-2.42425 1.53715,-3.60681c1.1233,-1.95123 2.30572,-3.7842 3.6655,-5.55804c3.19253,-4.43461 7.44925,-6.91798 12.17893,-9.51962c9.40024,-5.08501 20.69236,-5.85368 31.15678,-5.38065c9.75497,0.4139 19.98291,1.8921 28.79194,6.38583c4.37496,2.24687 8.33606,5.2624 11.58772,8.98747c1.47803,1.77384 5.08441,5.43978 7.0354,8.69183z" fill="#be965a"/><path d="M274.75368,213.03463l-12.35629,-0.05913v-3.48856l12.35629,0.11826z" fill="#ffffff"/><path d="M412.26917,190.92073l-20.69236,-0.11826v-3.42943l20.69236,0.11826z" fill="#a0783c"/><path d="M216.46036,169.9894c-2.12836,-0.29564 -16.90861,-3.84332 -25.36292,-6.14932c0.8277,-0.53215 19.21433,-11.29346 20.04203,-11.82562l24.4761,6.09019c0,0 -18.8596,11.70736 -19.15521,11.88474z" fill="#ffffff"/><path d="M92.89743,246.85589c-2.12836,-0.29564 -16.90861,-3.84333 -25.36292,-6.14932c0.88682,-0.53215 19.21433,-11.29346 20.04203,-11.82561l24.4761,6.09019c0,0 -18.85961,11.70736 -19.15521,11.88474z" fill="#ffffff"/><path d="M273.80775,294.74963c-2.12836,-0.29564 -16.90861,-3.84333 -25.36292,-6.14932c0.82769,-0.53215 18.62312,-11.29346 19.45082,-11.82562l25.06731,6.09019c0,0 -18.85961,11.70736 -19.15521,11.88474z" fill="#ffffff"/><path d="M272.03412,115.41418c-0.05912,-1.30082 -0.23648,-2.36512 0.11824,-3.54768l0.76857,0.05913v3.07466z" fill="#82783c"/><path d="M270.08312,114.58639h-0.70945c-0.29561,-0.88692 0.11824,-1.71471 -0.05912,-2.60164l0.82769,-0.29564c0.23648,1.06431 -0.11824,1.95123 -0.05912,2.89728z" fill="#82783c"/><path d="M171.05541,109.32399l0.76857,0.23651c0.05912,1.41907 0.11824,2.66076 0.17736,3.96158c-0.11824,0.05913 -0.17736,0.17738 -0.23648,0.17738c-0.17736,0 -0.41385,0 -0.59121,0c-0.11824,-0.29564 -0.17736,-0.65041 -0.23648,-1.00518c0.05912,-1.00518 0.11824,-2.06948 0.11824,-3.3703z" fill="#82783c"/><path d="M168.98618,113.58121c-0.17736,-0.23651 -0.41385,-0.35477 -0.41385,-0.53215c-0.05912,-0.70954 -0.11824,-1.41907 -0.11824,-2.06948c0.05912,-0.4139 0.11824,-0.76866 0.23648,-1.12343l0.65033,0.35477c0.23649,2.60164 0.23649,2.60164 -0.35473,3.3703z" fill="#82783c"/><path d="M174.60268,113.64034l-0.88682,0.17738c-0.59121,-1.12343 -0.05912,-2.18774 -0.17736,-3.25204l0.59121,-0.17738c0.53209,1.06431 0.35473,2.12861 0.47297,3.25204z" fill="#82783c"/><path d="M41.52126,43.51444l0.76857,0.23651c0.05912,1.35995 0.11824,2.66076 0.17736,3.96158c-0.11824,0.11826 -0.17736,0.17738 -0.23648,0.17738c-0.17736,0 -0.41385,0 -0.59121,0c-0.11824,-0.29564 -0.17736,-0.65041 -0.23648,-1.00518c0.05912,-1.00518 0.05912,-2.06948 0.11824,-3.3703z" fill="#82783c"/><path d="M39.45203,47.77166c-0.17736,-0.23651 -0.41385,-0.35477 -0.41385,-0.47302c-0.05912,-0.70954 -0.11824,-1.41907 -0.11824,-2.06948c0.05912,-0.4139 0.11824,-0.76867 0.23648,-1.12343l0.65033,0.35477c0.17736,2.54251 0.17736,2.54251 -0.35473,3.31117z" fill="#82783c"/><path d="M45.06852,47.83079l-0.88682,0.17738c-0.59121,-1.12343 -0.05912,-2.18774 -0.17736,-3.25204l0.59121,-0.17738c0.47297,1.06431 0.29561,2.12861 0.47297,3.25204z" fill="#82783c"/><path d="M426.10349,251.34963l0.76857,0.23651c0.05912,1.41907 0.11824,2.66076 0.17736,3.96158c-0.11824,0.05913 -0.17736,0.17738 -0.23648,0.17738c-0.17736,0 -0.41385,0 -0.59121,0c-0.11824,-0.29564 -0.17736,-0.65041 -0.23648,-1.00518c0,-1.00518 0.05912,-2.06948 0.11824,-3.3703z" fill="#82783c"/><path d="M423.97513,255.60685c-0.17736,-0.23651 -0.41385,-0.35477 -0.41385,-0.53215c-0.05912,-0.70954 -0.11824,-1.41907 -0.11824,-2.06948c0.05912,-0.4139 0.11824,-0.76866 0.23648,-1.12343l0.65033,0.35477c0.23648,2.60164 0.23648,2.60164 -0.35473,3.3703z" fill="#82783c"/><path d="M429.59163,255.66598l-0.88682,0.17738c-0.53209,-1.12343 -0.05912,-2.18774 -0.17736,-3.25204l0.59121,-0.17738c0.53209,1.06431 0.35473,2.12861 0.47297,3.25204z" fill="#82783c"/><path d="M423.97513,351.63084l0.76857,0.23651c0.05912,1.35995 0.11824,2.66076 0.17736,3.96158c-0.11824,0.11826 -0.17736,0.17738 -0.23648,0.17738c-0.17736,0 -0.41385,0 -0.59121,0c-0.11824,-0.29564 -0.17736,-0.65041 -0.23648,-1.00518c0.05912,-1.00518 0.11824,-2.06948 0.11824,-3.3703z" fill="#82783c"/><path d="M421.9059,355.94719c-0.17736,-0.23651 -0.41385,-0.35477 -0.41385,-0.53215c-0.05912,-0.70954 -0.11824,-1.41907 -0.11824,-2.06948c0.05912,-0.4139 0.11824,-0.76866 0.23648,-1.12343l0.65033,0.35477c0.23648,2.54251 0.23648,2.54251 -0.35473,3.3703z" fill="#82783c"/><path d="M427.5224,355.94719l-0.88682,0.17738c-0.59121,-1.12343 -0.05912,-2.18774 -0.17736,-3.25204l0.59121,-0.17738c0.53209,1.0643 0.35473,2.12861 0.47297,3.25204z" fill="#82783c"/><path d="M28.81024,347.31449l0.76857,0.23651c0.05912,1.35995 0.11824,2.66076 0.17736,3.96158c-0.11824,0.05913 -0.17736,0.17739 -0.23648,0.17739c-0.17736,0 -0.41385,0 -0.59121,0c-0.11824,-0.29564 -0.17736,-0.65041 -0.23648,-1.00518c0.05912,-1.00518 0.05912,-2.06948 0.11824,-3.3703z" fill="#82783c"/><path d="M26.74101,351.57171c-0.17736,-0.23651 -0.41385,-0.35477 -0.41385,-0.47302c-0.05912,-0.70954 -0.11824,-1.41907 -0.11824,-2.06948c0.05912,-0.4139 0.11824,-0.76866 0.23648,-1.12343l0.65033,0.35477c0.17736,2.54251 0.17736,2.54251 -0.35473,3.31117z" fill="#82783c"/><path d="M32.3575,351.63084l-0.88682,0.17739c-0.59121,-1.12343 -0.05912,-2.18774 -0.17736,-3.25204l0.59121,-0.17738c0.47297,1.06431 0.29561,2.12861 0.47297,3.25204z" fill="#82783c"/><path d="M293.49505,320.70686l0.76857,0.23651c0.05912,1.35994 0.11824,2.66076 0.17736,3.96158c-0.11824,0.11826 -0.17736,0.17738 -0.23648,0.17738c-0.17736,0 -0.41385,0 -0.59121,0c-0.11824,-0.29564 -0.17736,-0.65041 -0.23648,-1.00518c0.05912,-1.00518 0.11824,-2.06948 0.11824,-3.3703z" fill="#82783c"/><path d="M291.42581,324.96408c-0.17736,-0.23651 -0.41385,-0.35477 -0.41385,-0.47303c-0.05912,-0.70954 -0.11824,-1.41907 -0.11824,-2.06948c0.05912,-0.4139 0.11824,-0.76866 0.23648,-1.12343l0.65033,0.35477c0.23648,2.54251 0.23648,2.54251 -0.35473,3.31117z" fill="#82783c"/><path d="M297.04231,325.02321l-0.88682,0.17738c-0.59121,-1.12343 -0.05912,-2.18774 -0.17736,-3.25204l0.59121,-0.17738c0.53209,1.0643 0.35473,2.12861 0.47297,3.25204z" fill="#82783c"/><path d="M349.83738,162.06623l-0.65033,-0.29564c0.11824,-1.77384 0.41385,-3.48856 0.17736,-5.38066l0.82769,-0.17738c0,1.95123 -0.11824,3.90245 -0.35473,5.85368z" fill="#82783c"/><path d="M347.59078,158.75506c0.11824,1.0643 0.23648,2.01035 0.35473,3.07466h-0.88681c-0.05912,-1.12343 -0.11824,-2.12861 -0.17736,-3.25204z" fill="#82783c"/><path d="M33.1852,154.73435l-0.65033,-0.29564c0.11824,-1.77384 0.41385,-3.48856 0.17736,-5.38065l0.82769,-0.17739c0.05912,2.01036 -0.05912,3.96158 -0.35473,5.85368z" fill="#82783c"/><path d="M30.9386,151.42318c0.11824,1.0643 0.23648,2.01035 0.35473,3.07466h-0.88682c-0.05912,-1.12343 -0.11824,-2.12861 -0.17736,-3.25205z" fill="#82783c"/></g></g></g></svg>